<svg xmlns="http://www.w3.org/2000/svg" width="512" height="512" style="overflow: visible;" viewBox="0 0 512 512" data-svgdocument="" id="_I0ov3IfCN94KM39ZrkGG9" class="fl-svgdocument" x="0" y="0" xmlns:xlink="http://www.w3.org/1999/xlink" overflow="hidden"><defs id="_pkDYndgIWOL81NFNNLcmL" transform="matrix(0.90894912286183, 0, 0, 0.90894912286183, -70.1125000747353, 66.46003476660499)" data-uid="o_enfd094j1_4"></defs><g id="_1okLasMQs-nIAbPV2iyDb" transform="matrix(0.9471648144191779, 0, 0, 0.9471648144191779, 22.031246914974645, 31.237601150581696)" data-uid="o_enfd094j1_5"><path id="_Fl2Scs4_wOHmg5OewV_GS" d="M661.8,226L637,215.3c-12.6-5.4-27.4,0.4-32.8,13l-36.9,85.7L269.8,185.9c-4.2-34.1-33.4-60.6-68.6-60.6   c-38.1,0-69.2,31-69.2,69.1c0,38.1,31,69.2,69.2,69.2c12.3,0,23.9-3.2,33.9-8.9l322.4,138.9l27.1,11.7c10.8,4.7,23.3,1,30-8.2   c1.1-1.5,2-3.1,2.7-4.8l11.1-25.7l0.2-0.4l46.3-107.5C680.3,246.2,674.4,231.5,661.8,226z M201.2,231.9c-2.4,0-4.7-0.2-7-0.7   c-17.3-3.3-30.4-18.5-30.4-36.8c0-20.6,16.8-37.4,37.4-37.4c11.2,0,21.2,4.9,28,12.7c5.8,6.6,9.4,15.3,9.4,24.8   C238.6,215.1,221.8,231.9,201.2,231.9z" stroke="none" fill="#109e92" transform="matrix(0.2085195928812027, 0, 0, 0.2085195928812027, 144.90396118164062, 62.76109313964844)" stroke-width="1" data-uid="o_enfd094j1_6"></path><path id="_ylJJOq6xC4o6BEfUmBUra" d="M545.3,279.8L387.9,212c-6.1-2.6-8.9-9.7-6.3-15.8l21-48.7c2.6-6.1,9.7-8.9,15.8-6.3l157.4,67.8   c6.1,2.6,8.9,9.7,6.3,15.8l-21,48.7C558.5,279.6,551.4,282.4,545.3,279.8z" stroke="none" fill="#33364d" transform="matrix(0.2085195928812027, 0, 0, 0.2085195928812027, 144.7735137939453, 62.775787353515625)" stroke-width="1" data-uid="o_enfd094j1_7"></path><path id="_-X9hASYMVyRCYiqeY_XF9" d="M717.5,549.4l67.1-157.7c2.6-6.1,9.7-8.9,15.7-6.3l48.7,20.7c6.1,2.6,8.9,9.7,6.3,15.7l-67.1,157.7   c-2.6,6.1-9.7,8.9-15.7,6.3l-48.7-20.7C717.8,562.5,714.9,555.4,717.5,549.4z" stroke="none" fill="#109e92" transform="matrix(0.2085195928812027, 0, 0, 0.2085195928812027, 144.89785766601562, 62.73540496826172)" stroke-width="1" data-uid="o_enfd094j1_8"></path><path id="_C6xIPFOMuRv8iGuhwgHGI" d="M448.8,722.8l158,66.4c6.1,2.6,9,9.6,6.4,15.7l-20.5,48.8c-2.6,6.1-9.6,9-15.7,6.4l-158-66.4   c-6.1-2.6-9-9.6-6.4-15.7l20.5-48.8C435.6,723.1,442.7,720.2,448.8,722.8z" stroke="none" fill="#33364d" transform="matrix(0.2085195928812027, 0, 0, 0.2085195928812027, 144.77081298828125, 62.754337310791016)" stroke-width="1" data-uid="o_enfd094j1_9"></path><path id="_MlIuLZQfTU_n82zo4SSOF" d="M274.1,454.8l-65.7,158.3c-2.5,6.1-9.6,9-15.7,6.5l-48.9-20.3c-6.1-2.5-9-9.6-6.5-15.7L203,425.4   c2.5-6.1,9.6-9,15.7-6.5l48.9,20.3C273.8,441.7,276.7,448.7,274.1,454.8z" stroke="none" fill="#109e92" transform="matrix(0.2085195928812027, 0, 0, 0.2085195928812027, 144.82003784179688, 62.824527740478516)" stroke-width="1" data-uid="o_enfd094j1_10"></path><path id="_lvmqmwhDVeFZ_HFAdwjNl" d="M798.8,133c-38.1,0-69.2,31-69.2,69.1c0,13.9,4.1,26.8,11.2,37.6L603.7,562l-11.5,27.1    c-1.5,3.6-2.2,7.4-2,11.1c0,0.2,0,0.5,0.1,0.7c0,0.3,0,0.5,0.1,0.8c0,0,0,0.1,0,0.1c0.1,0.4,0.1,0.9,0.2,1.3    c0.1,0.4,0.1,0.8,0.2,1.2c0,0.2,0.1,0.4,0.2,0.6c0.1,0.4,0.2,0.7,0.3,1c0.1,0.4,0.2,0.8,0.4,1.2c0,0.2,0.1,0.3,0.2,0.5    c0.1,0.4,0.3,0.8,0.5,1.1c0.2,0.4,0.3,0.7,0.5,1.1c0.1,0.2,0.2,0.5,0.4,0.7c0,0.1,0.1,0.2,0.1,0.3c0.2,0.3,0.3,0.6,0.5,0.8    c0.1,0.3,0.3,0.5,0.5,0.7c0.2,0.3,0.4,0.7,0.7,1c0.2,0.2,0.3,0.5,0.5,0.7c0.3,0.3,0.5,0.6,0.8,1c0.2,0.2,0.3,0.4,0.5,0.6    c0.1,0.1,0.1,0.1,0.2,0.2c0.1,0.1,0.1,0.1,0.2,0.2c0.1,0.1,0.1,0.1,0.1,0.1c0.7,0.7,1.4,1.4,2.2,2c0,0,0,0,0,0    c0.4,0.3,0.8,0.6,1.2,0.9c1.5,1.1,3.1,2,4.8,2.7l25,10.7l1.2,0.5l107.7,45.8c12.6,5.4,27.4-0.6,32.7-13.2l10.6-24.9    c5.4-12.6-0.6-27.3-13.2-32.7l-85.9-36.5l128.2-301.3c32.1-6,56.4-34.2,56.4-68C868,164,837,133,798.8,133z M826.1,227.7    c-6.8,7.3-16.5,11.8-27.3,11.8c-20.6,0-37.4-16.8-37.4-37.4c0-0.7,0-1.5,0.1-2.2v0c1.1-19.6,17.4-35.2,37.4-35.2    c20.6,0,37.4,16.8,37.4,37.4C836.3,212,832.4,221,826.1,227.7z" stroke="none" fill="#33364d" transform="matrix(0.2085195928812027, 0, 0, 0.2085195928812027, 144.8711395263672, 62.71943283081055)" stroke-width="1" data-uid="o_enfd094j1_11"></path><path id="_Zaq_LSCsA51_rTNqmlLFO" d="M392.1,385.2c-1.9-1.6-4-2.9-6.3-3.8l-26-10.8l-0.3-0.1l-108.1-44.8c-12.7-5.3-27.4,0.8-32.6,13.5    l-10.4,25c-5.3,12.7,0.8,27.4,13.5,32.6l86.2,35.8L181.7,737.2c-28.7,8.4-49.7,35-49.7,66.4c0,38.1,31,69.2,69.2,69.2    c38.1,0,69.2-31,69.2-69.2c0-16.2-5.6-31.1-15-42.9l132.5-319.5c0.4-0.7,0.7-1.4,1-2.1l10.4-25C403.5,403.7,400.3,392,392.1,385.2    z M201.2,841c-20.6,0-37.4-16.8-37.4-37.4c0-7.6,2.3-14.6,6.1-20.5c6.7-10.2,18.2-16.9,31.3-16.9c19.3,0,35.2,14.7,37.2,33.5v0    c0.1,1.3,0.2,2.6,0.2,3.9C238.6,824.2,221.8,841,201.2,841z" stroke="none" fill="#33364d" transform="matrix(0.2085195928812027, 0, 0, 0.2085195928812027, 144.79991149902344, 62.76464080810547)" stroke-width="1" data-uid="o_enfd094j1_12"></path><path id="_z0Xkf1PDXmE11S_mmEETh" d="M795,736.3c-12.5,0-24.3,3.4-34.5,9.2L435.5,609l-27.1-11.4c-9.7-4-20.6-1.5-27.5,5.6    c-2.1,2.2-3.9,4.7-5.1,7.7L365,636.6L319.5,745c-5.3,12.7,0.7,27.4,13.3,32.7l24.9,10.5c12.7,5.3,27.4-0.7,32.7-13.3l36.2-86.1    l299.9,126c4.5,33.8,33.5,59.9,68.5,59.9c38.1,0,69.2-31,69.2-69.2C864.2,767.4,833.2,736.3,795,736.3z M795,842.9    c-11.3,0-21.4-5-28.2-12.9h0c-5.7-6.6-9.2-15.2-9.2-24.5c0-20.6,16.8-37.4,37.4-37.4c1.9,0,3.7,0.1,5.6,0.4    c18,2.7,31.9,18.3,31.9,37C832.5,826.1,815.7,842.9,795,842.9z" stroke="none" fill="#109e92" transform="matrix(0.2085195928812027, 0, 0, 0.2085195928812027, 144.7860870361328, 62.78530502319336)" stroke-width="1" data-uid="o_enfd094j1_13"></path></g><path id="_m77QNyT4vtXHEi9tJOdSZ" fill="#33364d" transform="matrix(0.8313349421943761, 0, 0, 0.8313349421943761, 47.916861431714764, 356.103021227523)" text="LingoHack" text-anchor="start" font-size="100" letter-spacing="0" side="left" offset="0" dx="0" dy="0" space="preserve" href="" font-family="Fredoka One" font-scale="contain" x="0" y="0" data-fl-textpath="" data-uid="o_enfd094j1_14" d="M 21.7-64.4L 21.7-14.8L 48.9-14.8Q 52.2-14.8  53.7-14.05Q 55.2-13.3  55.7-11.7Q 56.2-10.1  56.2-7.45Q 56.2-4.8  55.7-3.2Q 55.2-1.6  54-1L 54-1Q 52.1 0  48.8 0L 48.8 0L 12.8 0Q 5.8 0  4.6-3.8L 4.6-3.8Q 4-5.4  4-8.9L 4-8.9L 4-64.5Q 4-66.8  4.15-67.95Q 4.3-69.1  5.1-70.6L 5.1-70.6Q 6.5-73.3  12.9-73.3L 12.9-73.3Q 19.9-73.3  21.2-69.6L 21.2-69.6Q 21.7-67.9  21.7-64.4L 21.7-64.4ZM 62.7-8.8L 62.7-43.9Q 62.7-46.2  62.85-47.35Q 63-48.5  63.7-50L 63.7-50Q 65.10000000000001-52.6  71.5-52.6L 71.5-52.6Q 76.30000000000001-52.6  78.30000000000001-50.9L 78.30000000000001-50.9Q 80-49.5  80.1-46.6L 80.1-46.6Q 80.2-45.6  80.2-43.7L 80.2-43.7L 80.2-8.7Q 80.2-6.4  80.05000000000001-5.25Q 79.9-4.1  79.1-2.6L 79.1-2.6Q 77.80000000000001 0  71.4 0L 71.4 0Q 65.10000000000001 0  63.7-2.7L 63.7-2.7Q 63-4.2  62.85-5.3Q 62.7-6.4  62.7-8.8L 62.7-8.8ZM 79.15-62.45Q 78.4-61  76.5-60.4Q 74.60000000000001-59.8  71.45-59.8Q 68.3-59.8  66.4-60.4Q 64.5-61  63.75-62.5Q 63-64  62.85-65.15Q 62.7-66.3  62.7-68.6Q 62.7-70.9  62.85-72.05Q 63-73.2  63.7-74.6L 63.7-74.6Q 65.10000000000001-77.3  71.5-77.3L 71.5-77.3Q 77.80000000000001-77.3  79.1-74.6L 79.1-74.6Q 79.9-73.1  80.05000000000001-71.95Q 80.2-70.8  80.2-68.5Q 80.2-66.2  80.05000000000001-65.05Q 79.9-63.9  79.15-62.45ZM 117.5-52.7L 117.5-52.7Q 127.5-52.7  134.15-45.05Q 140.8-37.4  140.8-26.4L 140.8-26.4L 140.8-8.8Q 140.8-6.5  140.65-5.35Q 140.5-4.2  139.8-2.8L 139.8-2.8Q 138.4-0.1  132-0.1L 132-0.1Q 124.9-0.1  123.80000000000001-3.8L 123.80000000000001-3.8Q 123.2-5.5  123.2-8.9L 123.2-8.9L 123.2-26.5Q 123.2-30.6  120.85-32.9Q 118.5-35.2  114.55000000000001-35.2Q 110.6-35.2  108.15-32.8Q 105.7-30.4  105.7-26.5L 105.7-26.5L 105.7-8.8Q 105.7-6.5  105.55000000000001-5.35Q 105.4-4.2  104.6-2.8L 104.6-2.8Q 103.30000000000001-0.1  96.9-0.1L 96.9-0.1Q 90.60000000000001-0.1  89.2-2.8L 89.2-2.8Q 88.5-4.3  88.35000000000001-5.45Q 88.2-6.6  88.2-8.9L 88.2-8.9L 88.2-44.3Q 88.2-46.5  88.35000000000001-47.65Q 88.5-48.8  89.3-50.2L 89.3-50.2Q 90.7-52.7  97-52.7L 97-52.7Q 103.1-52.7  104.5-50.4L 104.5-50.4Q 105.5-48.7  105.5-46.3L 105.5-46.3Q 105.9-47  107.30000000000001-48.3Q 108.7-49.6  110-50.4L 110-50.4Q 113.4-52.7  117.5-52.7ZM 182.20000000000002-3.6L 182.20000000000002-6.6Q 178.4-1.6  170.10000000000002-1.6Q 161.8-1.6  154.55-9.25Q 147.3-16.9  147.3-27.1Q 147.3-37.3  154.60000000000002-45Q 161.9-52.7  170.60000000000002-52.7L 170.60000000000002-52.7Q 174-52.7  176.8-51.45Q 179.60000000000002-50.2  180.65-49.15Q 181.70000000000002-48.1  182.3-47.2L 182.3-47.2Q 182.60000000000002-50  184.35000000000002-51.45Q 186.10000000000002-52.9  190-52.9Q 193.9-52.9  195.70000000000002-52.3Q 197.5-51.7  198.25-50.25Q 199-48.8  199.15-47.7Q 199.3-46.6  199.3-44.3L 199.3-44.3L 199.3-2.9Q 199.3 8.6  191.3 15.65Q 183.3 22.7  173.3 22.7L 173.3 22.7Q 165.70000000000002 22.7  158.8 19Q 151.9 15.3  151.9 12.3L 151.9 12.3Q 151.9 8.4  154.9 5.4L 154.9 5.4Q 156.8 3.3  157.85000000000002 2.5Q 158.9 1.7  160.3 1.7Q 161.70000000000002 1.7  163.20000000000002 2.9L 163.20000000000002 2.9Q 168 6.6  173.60000000000002 6.6L 173.60000000000002 6.6Q 177.4 6.6  179.8 3.6Q 182.20000000000002 0.6  182.20000000000002-3.6L 182.20000000000002-3.6ZM 164.4-27.05Q 164.4-23.8  166.95000000000002-21.2Q 169.5-18.6  173.15-18.6Q 176.8-18.6  179.20000000000002-21.25Q 181.60000000000002-23.9  181.60000000000002-27.05Q 181.60000000000002-30.2  179.3-32.95Q 177-35.7  173.10000000000002-35.7Q 169.20000000000002-35.7  166.8-33Q 164.4-30.3  164.4-27.05ZM 205.8-26.3Q 205.8-38.3  214.20000000000002-46.1Q 222.60000000000002-53.9  233.4-53.9Q 244.20000000000002-53.9  252.5-46.15Q 260.8-38.4  260.8-26.4L 260.8-26.4Q 260.8-18.1  256.5-11.65Q 252.20000000000002-5.2  246.05-2.15Q 239.9 0.9  233.3 0.9Q 226.70000000000002 0.9  220.5-2.35Q 214.3-5.6  210.05-11.95Q 205.8-18.3  205.8-26.3L 205.8-26.3ZM 226.70000000000002-19.15Q 229.9-16.7  233.20000000000002-16.7Q 236.5-16.7  239.8-19.2Q 243.10000000000002-21.7  243.10000000000002-26.6Q 243.10000000000002-31.5  240-33.9Q 236.9-36.3  233.3-36.3Q 229.70000000000002-36.3  226.60000000000002-33.8Q 223.5-31.3  223.5-26.45Q 223.5-21.6  226.70000000000002-19.15ZM 312.6-70.6Q 313.40000000000003-72.1  315.3-72.7Q 317.2-73.3  320.1-73.3Q 323-73.3  324.7-72.8Q 326.40000000000003-72.3  327.3-71.6Q 328.20000000000005-70.9  328.70000000000005-69.6L 328.70000000000005-69.6Q 329.20000000000005-67.9  329.20000000000005-64.4L 329.20000000000005-64.4L 329.20000000000005-8.9Q 329.20000000000005-6.6  329.05-5.45Q 328.9-4.3  328.1-2.8L 328.1-2.8Q 326.7-0.1  320.3-0.1L 320.3-0.1Q 313.3-0.1  312.1-3.8L 312.1-3.8Q 311.5-5.5  311.5-9L 311.5-9L 311.5-29.3L 285-29.3L 285-8.9Q 285-6.6  284.85-5.45Q 284.7-4.3  283.90000000000003-2.8L 283.90000000000003-2.8Q 282.5-0.1  276.1-0.1L 276.1-0.1Q 269.1-0.1  267.90000000000003-3.8L 267.90000000000003-3.8Q 267.3-5.5  267.3-9L 267.3-9L 267.3-64.5Q 267.3-66.8  267.45-67.95Q 267.6-69.1  268.40000000000003-70.6L 268.40000000000003-70.6Q 269.8-73.3  276.2-73.3L 276.2-73.3Q 283.2-73.3  284.5-69.6L 284.5-69.6Q 285-67.9  285-64.4L 285-64.4L 285-44L 311.5-44L 311.5-64.5Q 311.5-66.8  311.65000000000003-67.95Q 311.8-69.1  312.6-70.6ZM 371.40000000000003-47.1L 371.40000000000003-47.1Q 372.00000000000006-52.7  379.30000000000007-52.7L 379.30000000000007-52.7Q 383.20000000000005-52.7  385.1-52.1Q 387.00000000000006-51.5  387.75000000000006-50Q 388.50000000000006-48.5  388.65000000000003-47.35Q 388.80000000000007-46.2  388.80000000000007-43.9L 388.80000000000007-43.9L 388.80000000000007-8.9Q 388.80000000000007-6.6  388.65000000000003-5.45Q 388.50000000000006-4.3  387.80000000000007-2.8L 387.80000000000007-2.8Q 386.40000000000003-0.2  380.95000000000005-0.2Q 375.50000000000006-0.2  373.65000000000003-1.55Q 371.80000000000007-2.9  371.50000000000006-5.5L 371.50000000000006-5.5Q 367.80000000000007-0.2  359.15000000000003-0.2Q 350.50000000000006-0.2  343.1-8.1Q 335.70000000000005-16  335.70000000000005-26.45Q 335.70000000000005-36.9  343.15000000000003-44.75Q 350.6-52.6  359.50000000000006-52.6L 359.50000000000006-52.6Q 362.90000000000003-52.6  365.70000000000005-51.4Q 368.50000000000006-50.2  369.6-49.15Q 370.70000000000005-48.1  371.40000000000003-47.1ZM 353.20000000000005-26.3Q 353.20000000000005-23  355.80000000000007-20.35Q 358.40000000000003-17.7  362.1-17.7Q 365.80000000000007-17.7  368.25000000000006-20.4Q 370.70000000000005-23.1  370.70000000000005-26.35Q 370.70000000000005-29.6  368.35-32.4Q 366.00000000000006-35.2  362.05000000000007-35.2Q 358.1-35.2  355.65000000000003-32.4Q 353.20000000000005-29.6  353.20000000000005-26.3ZM 413.30000000000007-26.35Q 413.30000000000007-22.1  416.1000000000001-19.75Q 418.9000000000001-17.4  422.05000000000007-17.4Q 425.20000000000005-17.4  427.95000000000005-19.25Q 430.70000000000005-21.1  432.4000000000001-21.1L 432.4000000000001-21.1Q 435.4000000000001-21.1  439.70000000000005-15.8L 439.70000000000005-15.8Q 442.00000000000006-12.9  442.00000000000006-10.6L 442.00000000000006-10.6Q 442.00000000000006-6.8  436.50000000000006-3.5L 436.50000000000006-3.5Q 430.80000000000007 0.5  422.50000000000006 0.5L 422.50000000000006 0.5Q 413.20000000000005 0.5  404.6000000000001-6.2L 404.6000000000001-6.2Q 400.50000000000006-9.4  397.9000000000001-14.75Q 395.30000000000007-20.1  395.30000000000007-26.55Q 395.30000000000007-33  397.9000000000001-38.25Q 400.50000000000006-43.5  404.6000000000001-46.7L 404.6000000000001-46.7Q 412.9000000000001-53.3  422.30000000000007-53.3L 422.30000000000007-53.3Q 426.1000000000001-53.3  429.70000000000005-52.25Q 433.30000000000007-51.2  435.00000000000006-50.2L 435.00000000000006-50.2L 436.6000000000001-49.2Q 438.4000000000001-48  439.4000000000001-47.3L 439.4000000000001-47.3Q 442.00000000000006-45.3  442.00000000000006-42.75Q 442.00000000000006-40.2  439.9000000000001-37L 439.9000000000001-37Q 436.30000000000007-31.5  433.00000000000006-31.5L 433.00000000000006-31.5Q 431.1000000000001-31.5  427.6000000000001-33.7L 427.6000000000001-33.7Q 425.80000000000007-35.4  422.45000000000005-35.4Q 419.1000000000001-35.4  416.20000000000005-33Q 413.30000000000007-30.6  413.30000000000007-26.35ZM 489.40000000000003-34.8L 479.50000000000006-26.4L 492.80000000000007-15.4Q 495.30000000000007-13.3  495.95000000000005-12.2Q 496.6000000000001-11.1  496.6000000000001-10.1L 496.6000000000001-10.1Q 496.6000000000001-7.7  493.50000000000006-3.6L 493.50000000000006-3.6Q 490.1000000000001 0.6  487.50000000000006 0.6L 487.50000000000006 0.6Q 485.30000000000007 0.6  481.40000000000003-2.3L 481.40000000000003-2.3L 480.40000000000003-3Q 478.1000000000001-4.9  473.30000000000007-9.65Q 468.50000000000006-14.4  466.00000000000006-16.4L 466.00000000000006-16.4L 466.00000000000006-8.7Q 466.00000000000006-6.4  465.8500000000001-5.25Q 465.70000000000005-4.1  464.90000000000003-2.6L 464.90000000000003-2.6Q 463.6000000000001 0  457.20000000000005 0L 457.20000000000005 0Q 450.90000000000003 0  449.50000000000006-2.7L 449.50000000000006-2.7Q 448.80000000000007-4.2  448.65000000000003-5.35Q 448.50000000000006-6.5  448.50000000000006-8.8L 448.50000000000006-8.8L 448.50000000000006-68.7Q 448.50000000000006-71  448.65000000000003-72.15Q 448.80000000000007-73.3  449.50000000000006-74.8L 449.50000000000006-74.8Q 450.90000000000003-77.5  457.30000000000007-77.5L 457.30000000000007-77.5Q 462.1000000000001-77.5  464.1000000000001-75.8L 464.1000000000001-75.8Q 465.80000000000007-74.4  465.90000000000003-71.4L 465.90000000000003-71.4Q 466.00000000000006-70.5  466.00000000000006-68.6L 466.00000000000006-68.6L 466.00000000000006-36.9Q 467.80000000000007-38.4  471.45000000000005-42Q 475.1000000000001-45.6  476.90000000000003-47.1L 476.90000000000003-47.1L 478.1000000000001-47.9Q 481.6000000000001-50.6  484.1000000000001-50.6Q 486.6000000000001-50.6  489.8500000000001-46.55Q 493.1000000000001-42.5  493.1000000000001-40.2Q 493.1000000000001-37.9  489.40000000000003-34.8L 489.40000000000003-34.8Z"></path></svg>